<?xml version="1.0" encoding="utf-8" standalone="no"?>
<!DOCTYPE svg PUBLIC "-//W3C//DTD SVG 1.1//EN" "http://www.w3.org/Graphics/SVG/1.1/DTD/svg11.dtd">

<svg style="stroke-linejoin:round; stroke:black; stroke-width:0.5pt; text-anchor:middle; fill:none" xmlns="http://www.w3.org/2000/svg" font-family="Helvetica, Arial, FreeSans, Sans, sans, sans-serif" height="297mm" width="210mm" version="1.1" xmlns:xlink="http://www.w3.org/1999/xlink" viewBox="0 0 210 297">

<g>

<rect y="23.5" width="25.0" fill="black" x="17.5" height="25.0" />

<rect y="73.5" width="25.0" fill="black" x="17.5" height="25.0" />

<rect y="123.5" width="25.0" fill="black" x="17.5" height="25.0" />

<rect y="173.5" width="25.0" fill="black" x="17.5" height="25.0" />

<rect y="223.5" width="25.0" fill="black" x="17.5" height="25.0" />

<rect y="48.5" width="25.0" fill="black" x="42.5" height="25.0" />

<rect y="98.5" width="25.0" fill="black" x="42.5" height="25.0" />

<rect y="148.5" width="25.0" fill="black" x="42.5" height="25.0" />

<rect y="198.5" width="25.0" fill="black" x="42.5" height="25.0" />

<rect y="248.5" width="25.0" fill="black" x="42.5" height="25.0" />

<rect y="23.5" width="25.0" fill="black" x="67.5" height="25.0" />

<rect y="73.5" width="25.0" fill="black" x="67.5" height="25.0" />

<rect y="123.5" width="25.0" fill="black" x="67.5" height="25.0" />

<rect y="173.5" width="25.0" fill="black" x="67.5" height="25.0" />

<rect y="223.5" width="25.0" fill="black" x="67.5" height="25.0" />

<rect y="48.5" width="25.0" fill="black" x="92.5" height="25.0" />

<rect y="98.5" width="25.0" fill="black" x="92.5" height="25.0" />

<rect y="148.5" width="25.0" fill="black" x="92.5" height="25.0" />

<rect y="198.5" width="25.0" fill="black" x="92.5" height="25.0" />

<rect y="248.5" width="25.0" fill="black" x="92.5" height="25.0" />

<rect y="23.5" width="25.0" fill="black" x="117.5" height="25.0" />

<rect y="73.5" width="25.0" fill="black" x="117.5" height="25.0" />

<rect y="123.5" width="25.0" fill="black" x="117.5" height="25.0" />

<rect y="173.5" width="25.0" fill="black" x="117.5" height="25.0" />

<rect y="223.5" width="25.0" fill="black" x="117.5" height="25.0" />

<rect y="48.5" width="25.0" fill="black" x="142.5" height="25.0" />

<rect y="98.5" width="25.0" fill="black" x="142.5" height="25.0" />

<rect y="148.5" width="25.0" fill="black" x="142.5" height="25.0" />

<rect y="198.5" width="25.0" fill="black" x="142.5" height="25.0" />

<rect y="248.5" width="25.0" fill="black" x="142.5" height="25.0" />

<rect y="23.5" width="25.0" fill="black" x="167.5" height="25.0" />

<rect y="73.5" width="25.0" fill="black" x="167.5" height="25.0" />

<rect y="123.5" width="25.0" fill="black" x="167.5" height="25.0" />

<rect y="173.5" width="25.0" fill="black" x="167.5" height="25.0" />

<rect y="223.5" width="25.0" fill="black" x="167.5" height="25.0" />

</g>

</svg>

